<svg xmlns="http://www.w3.org/2000/svg" viewBox="0 0 592.1 605.5"><style>.ram{fill:#591168;}.horns{fill:#b95587;}.rust{fill:#ef9996;}.crate{fill:#fffbf3;}</style><path d="M465.2 236.1c8.1 0 14.6 1.3 19.6 3.7-0.4-10.2-2.6-20.2-6.2-29.6-3.2 9.3-7.6 18-13.4 25.9m-175.4 363.4c-32.8 3.5-66.2 4.8-94.5 5.7l-9 0.3-4.6-7.8c-14.5-24.5-29.3-57-23-99.7-24.2 1.9-48.1-8.1-61.8-25.8-15.1-14.7-23.8-36.3-24.6-60.8-0.4-14.1 1.8-28.4 6.4-42-27.4-0.2-44.8-12.9-54.9-24.2-12.5-14.1-20.9-33.9-23.2-56-9.2-87 80.4-88.3 80.4-88.3 0 0-29 20.4-22.3 58.7 1.5 8.8 10 12 19.2 11.4 0.6 0 1.2-0.1 1.7-0.2 11.8-1.2 25-5.8 34-43-1.8-9.8-4-29.2 8.5-46.1l-3.2-17.1c-1.7-2.7-3.6-5.6-5.5-8.6-26.1-40.2-61.9-95.2-43.1-131.9 6.7-13.2 21.5-21.1 44-23.5 22.9-2.4 53.1 1.4 75 9.5 26.1 9.7 47 33.2 60.3 55.7 39-34.1 82-54.3 125.3-58.9 75-8 146.8 31.2 187.6 102.2 30.6 53.4 38.2 127.2 19.4 188-14.2 45.9-41.7 81.8-80 104.6 7.4 14.9 14 30.8 20 47.5l1.8 5-1.7 5c-15.4 45.5-46.5 80.5-92.6 103.9-35.8 18.2-81.4 30.1-139.4 36.2 0 0 0 0 0 0" fill="#e6cfd0"/><path d="M454.9 323.9c-5.8-25.9 4.2-48.6 25.4-68.6-4.2-6.1-34.2-4.5-46.3 2.6-1.5-3-2.9-5.9-4.4-8.9 27.8-18.8 41.1-45.9 39.2-81.6 46.9 46 40.9 129.3-13.9 156.4m94.3-207c-57.6-100.5-188.5-140.8-304-25.8-10.1-24.1-33-55.9-61.2-66.4-31.3-11.6-88.8-15.3-100 6.5-16.4 32.2 28.6 94.7 49.5 127.7 1.7 9.1 3.4 18.2 5.2 27.2-11.8 11.4-12.5 26.1-9.2 42-9.1 40.4-24.7 56.4-50.3 58.2-37.9 2.7-48.2-45.1-26.9-65-29 6.9-39 41.7-36.2 66.2 4.1 37.1 28.6 79.6 89.3 62.7-24.9 37.3-23 87.1 3.2 111.7 11.6 15.9 38.7 28.8 70.9 15.3-14.9 46.2-3.2 81 15.6 112.7 122.8-3.7 271.7-14.8 312.4-135.4-7.7-21.6-16.4-41.2-26.1-59 107.2-51.8 115.5-195.7 67.9-278.7" class="ram"/><path d="M155.3 169.1c-5.9-44.9-17.5-88.5-42.4-129 24.8-5.1 50.1 1.7 70.1 17.2-16.3-5.2-37.9-10.9-50.9-4.7 21.4 3.7 45.5 13 71.4 26.3 2.1 3 4 6.1 5.8 9.4-22.3-8.1-43.9-11.4-64.3-6.6 28.3 3.1 51 11 71 21.3 2 5.4 3.5 11.2 4.6 17.1-22.6-7.8-43.9-11.1-61.8-3 19.4 0.4 36.1 4.3 50.2 11.3-20.1 13.2-37.9 26.7-53.6 40.6" class="horns"/><path d="M247.3 129.7c-10.1 17.4 8.7 60.7 28.5 47.3 16.7-11.2 36.9-10.9 57.5-2.9 0.2-1.6 0.5-3.2 0.8-4.7-18.2-22.4-39-41.8-71.4-47.8 40.1-0.9 59.7 13.8 76.3 30.7 3.2-8.6 7.6-16.9 12.8-24.6-13.9-20.3-32.8-34.3-57.5-40.7 27-1.7 48.4 10 67.1 28.4 6.7-7.5 14.3-14.1 22.6-19.6-10.6-18.7-25.1-33.4-51.1-36.3 30.2-3.1 50.9 8.4 66.4 27.9 8.6-3.8 17.8-6.5 27.4-7.7-8.2-14.6-19.5-25.8-35.8-31.6 25.7 0.5 40.5 13.5 51.4 31 10.2 0.4 20.6 2.5 31.1 6.6-1.4-9.4-6.4-17.1-14.1-23.6 13.1 6.4 21 16 24.5 28.3 19.3 9.8 38.7 26.6 56.9 51.9-47.4-97.3-136.4-115.4-204.5-92.6-37.8 12.6-80.4 64.3-88.9 80.1" class="horns"/><path d="M229.4 137.7c-6 22.4-2.6 40.1 15.6 54.8 7.1 5.7 19.5 16.3 42.6-1.7 17.8-13.8 26.3-6.6 47.6-2.3 20.9 25.8 19.9 35.5 12.7 50.6-16.2 33.7 14.7 89.1 7.2 111.9-12.2 37.1-44 75-68.4 82.6-21 2-69.5-1.6-99.9 19.9-18.6 13.2-51.9 15-68.5-5.9 1.4-1.7 3.6-3.3 6.3-4.8 33.2 15.6 34.9 2.5 77.8-11.2-3.4-8.9-14.9-4.2-22.1-2.4-31 7.4-18 13-52.4 6.2 0.4-7.1-3.7-15.4 2.8-21 14.9-12.8 45-19.6 34.4-45.1-1.4 25.9-29.7 18-43.5 36-4.1-7.2-9-11.4-12.3-21.7 9.8-30.6 18.1-28.6 26.4-42.9 21.7-48.1 24.5-78.7 36.4-99.5-7.2 4.9-9.7 8.2-11.6 11.2-14.7-25.1-17.5-44.4-3.9-58.3 21.7-22.4 49.3-42 72.9-56.4" class="rust"/><path d="M336.4 232.7c0 0-37-26-59.3-3.7-0.8-20 13.7-30.8 13.7-30.8 0 0-38.1-0.1-46.2 51.5-20.3 31.3-19.8 66.2-10.2 88.8 17.4-20.4 23.3-22.9 23.3-22.9l3.1 29.1c0 0-11.7 16-32.7 21.8-21 5.8-8.7-13.8-27.1-13.5-18.5 0.3-22.9 16.4-22.7 18.8 0.3 2.5 15 44.1 16.3 47 0.4 0.9 2.3 4.4 4.9 9 1.2 0.8 2.2 2 2.8 3.8-0.2 0.1-0.4 0.1-0.6 0.2 2 3.6 4.2 7.5 6.2 11.2 28.4-9.7 62.1-7.8 78.7-9.4 24.5-7.7 56.3-45.6 68.4-82.6 7.1-21.7-20.5-72.8-9.2-106.8-4.8-6.1-9.4-11.4-9.4-11.4" class="horns"/><path d="M276.3 208.9c-9.6 10.3-11.1 23.6-4.2 40.1 5.1-15.2 37.8-32 55.1-4.7-8.1 30.9-31 33.8-49.2 25.3-1.2 1.6-2.5 3.3-3.7 4.9 6.3 31 36.8 36.6 54.7 3.2-1 21.2-11.2 41-29.8 41.8-16.1 0.7-27.3-5.1-39.6-27.9-6.9 8-13 18.7-19.6 28-7.6-22.4-3-45.2 14.8-68.5-2.9-18.7 10.7-41.4 21.5-42.2" class="ram"/><path d="M280.7 325.9c8 28.5 42.8 26.9 26 66.9-6.2-31.2-30.8-21.1-26-66.9" class="ram"/><path d="M103.5 403.5c8.3 9.4 13.8 19.1 15.8 29.2-3.8 1.3-6.3 2.6-8.3 3.7-5.4-7.2-8-18.1-7.6-32.9" class="crate"/><path d="M367.4 236.5c-0.5-9.7 8-16.6-4.3-36.4 18.1-43.8 63.1-23.3 86.6-40.6 7.3-4.3 16.8 24.9-3.8 48 9.9-31.6-0.7-32.5-9.8-28.3-15.8 7.2-19.7 42.4-46.2 51.8-7.3 2.6-14.9 3.7-22.4 5.6" class="rust"/><path d="M478 378.2c-6-1.1-11.4-3.6-16-7.3-20-0.1-36.6-10.4-49.7-30.9 14.8 11.5 27.8 18.2 38.7 18.6-4.3-6.6-7.6-14.4-9.8-22.7-12.9-4-20.4-12.2-24.9-22.7 7.5 6.2 14.9 8.8 22.2 8.7-2.8-21.4 0.8-43.4 10.7-55.3-38.5 14.5-49.9 66.5-35 93.8 10.6 19.4 32.5 25.4 63.9 17.7" class="horns"/><path d="M394.6 361.1c8.4 14.7 23 25.2 38.8 34.8 7.9 32 11.8 62.8 5.9 90.8 14.4-21.6 20.4-45.7 19.7-71.8 10.4 12 17.6 25.6 23.4 39.9-16.2 56.5-97.7 99.5-157.5 103.9 18.5-15.1 31.5-31.6 41.3-48.8 2.1 7.9 4.1 15.8 6.2 23.7 34.5-46.7 45-91.5 38.5-135-3.4 28.2-10.1 55.3-24.8 79.8-4.1-12.6-8.3-25.2-12.4-37.8-18.4 43.9-52.3 82-106.1 112.7 9.9-26.9 36.4-55.6 60.1-78.6 30.5-29.6 49.3-67.2 67.1-113.7" class="horns"/><path d="M217.5 551.6c-1.3-12.2-3.9-39 8.1-51.6 28.5-30 44.4-23.8 62.2-32.1-13.7 40.3-51.3 41.7-70.3 83.7" class="horns"/><path d="M207.9 384c0 0-12.8-19.2-34.2-40.3 3.5-25.1 22.1-50.2 22.1-50.2 0 0-1.9-17.8-1.6-38.7-19.4-13.9-29.4 2.8-29.6 3.1-6.9 19.7-12.5 46.1-29 82.6-8.4 14.2-16.6 12.3-26.4 42.9 3.3 10.3 8.2 14.5 12.3 21.7 13.9-18.1 42.1-10.2 43.5-36 10.6 25.4-19.5 32.3-34.4 45.1-6.5 5.6-2.4 14-2.8 21 34.4 6.8 21.4 1.1 52.4-6.2 7.2-1.7 18.7-6.4 22.1 2.4-43 13.7-44.6 26.8-77.8 11.2-2.7 1.5-4.9 3.1-6.3 4.8 16.6 20.9 49.9 19.2 68.5 5.9 15.3-10.9 35.2-15.3 53.8-17.3-3.9-3.9-8.1-9.2-10.8-15.9-6.7-16.4-16-28.3-16-28.3" class="crate"/><path d="M198 246.1c-4.3 25.7 3.7 48.2 0.2 53.7-9 14.6-14.2 22.5-17.6 43 13 10.8 22.4 21.4 31.9 38.2 3.8 6.7 13.5 2.4 32.9-16-10 25.5-32.5 37.5-38.8 26.9-24.3-40.9-44.3-39.8-42.4-48.1 2.9-12.9 12.5-30.5 25.9-50.1-0.1-21 1.9-38 7.9-47.5" class="ram"/><path d="M436 179.1c9.1-4.1 19.7-3.2 9.8 28.3 8.8-9.9 12.1-21 12.4-30-4.1-8.8-13.4-16.7-34.5-0.1-34.9 27.4-26.6 39.6-54.2 45.2 0 0 0 0 0 0-0.6 5.2-2.4 9.2-2.2 13.9 7.5-1.9 15.2-3 22.4-5.6 26.5-9.4 30.4-44.6 46.2-51.8" class="horns"/><path d="M316.3 244.8c0 0-5.2-3.5-11.5-3.9 0.8 7.3-0.1 11.4-0.1 11.4l8.3 3.1c0 0 3.5-4.8 3.3-10.6" class="crate"/><path d="M336.2 49.6c-37.8 12.6-80.4 64.3-88.9 80.1-4.3 7.4-3.4 19.5 0.6 29.9 5-8.2 13.5-21.2 25.3-35.5-3.4-1-6.8-1.8-10.5-2.5 4.4-0.1 8.5 0 12.3 0.2 8.6-10.3 18.7-21.1 30.4-31.2-3.6-1.4-7.3-2.6-11.1-3.6 5.1-0.3 10-0.2 14.8 0.4 11.3-9.4 23.8-18.1 37.5-25-4.2-1.4-8.8-2.4-13.8-2.9 7-0.7 13.6-0.7 19.6 0.1 28.2-12.8 61.1-18 97.8-7.1-37.8-15.5-78.8-14.7-114.2-2.9" class="crate"/></svg>
